<?xml version="1.0" standalone="no"?><!DOCTYPE svg PUBLIC "-//W3C//DTD SVG 1.1//EN" "http://www.w3.org/Graphics/SVG/1.1/DTD/svg11.dtd" ><svg xmlns="http://www.w3.org/2000/svg"><metadata></metadata><defs><font id="FontEditor 1.0 : fonteditor" horiz-adv-x="1185"><font-face font-family="fonteditor" font-weight="400" font-stretch="normal" units-per-em="1024" panose-1="2 0 6 3 0 0 0 0 0 0" ascent="812" descent="-212" x-height="0" bbox="-171 -241 1140 986" underline-thickness="0" underline-position="50" unicode-range="U+0021-fb02" /><missing-glyph horiz-adv-x="374" d="M34 0 L34 682 L306 682 L306 0 L34 0 ZM68 34 L272 34 L272 648 L68 648 L68 34 Z" /><glyph glyph-name="exclam" unicode="!" d="M93 196 L93 743 L163 743 L163 196 L93 196 ZM93 0 L93 93 L163 93 L163 0 L93 0 Z" /><glyph glyph-name="quotedbl" unicode="&quot;" d="M237 717 L237 441 L186 441 L186 717 L237 717 ZM100 717 L100 441 L49 441 L49 717 L100 717 Z" /><glyph glyph-name="numbersign" unicode="#" d="M488 432 L355 432 L306 294 L440 294 L488 432 ZM459 727 L375 486 L507 486 L593 727 L657 727 L572 486 L729 486 L711 432 L552 432 L503 294 L673 294 L655 240 L485 240 L400 0 L335 0 L421 240 L287 240 L201 0 L137 0 L222 240 L59 240 L78 294 L241 294 L291 432 L115 432 L132 486 L309 486 L396 727 L459 727 Z" /><glyph glyph-name="dollar" unicode="$" d="M235 -92 L235 -9 Q135 -4 96.5 32.5 Q58 69 58 160 L58 222 L129 222 L129 173 Q129 103 150.5 78 Q172 53 231 53 L235 53 L235 345 Q136 356 101.5 391 Q67 426 67 512 L67 529 Q67 609 75 645.5 Q83 682 102 703 Q121 724 152.5 736 Q184 748 235 752 L235 814 L285 814 L285 752 Q379 744 415 707.5 Q451 671 451 583 L451 540 L379 540 L379 570 Q379 639 359 663.5 Q339 688 285 689 L285 414 Q381 400 417 358.5 Q453 317 453 217 Q453 126 446 93 Q439 60 421 40 Q401 18 368 6 Q335 -6 285 -9 L285 -92 L235 -92 ZM285 340 L285 54 Q340 58 360.5 81 Q381 104 381 161 L381 244 Q381 293 359.5 314.5 Q338 336 285 340 ZM235 418 L235 689 Q181 686 159.5 664 Q138 642 138 588 L138 510 Q138 466 159 446 Q180 426 235 418 Z" /><glyph glyph-name="percent" unicode="%" d="M789 171 Q789 73 763.5 35.5 Q738 -2 676 -2 L621 -2 Q559 -2 533.5 35.5 Q508 73 508 171 L508 285 Q508 383 533.5 421 Q559 459 621 459 L676 459 Q738 459 763.5 421 Q789 383 789 285 L789 171 ZM724 177 L724 280 Q724 360 709 380 Q694 400 648 400 Q603 400 588 380 Q573 360 573 280 L573 177 Q573 97 588 77.5 Q603 58 648 58 Q694 58 709 77.5 Q724 97 724 177 ZM326 457 Q326 359 300.5 321.5 Q275 284 213 284 L158 284 Q96 284 70.5 321.5 Q45 359 45 457 L45 571 Q45 669 70.5 707 Q96 745 158 745 L213 745 Q275 745 300.5 707 Q326 669 326 571 L326 457 ZM261 463 L261 564 Q261 646 246 665.5 Q231 685 186 685 Q140 685 125 665.5 Q110 646 110 564 L110 463 Q110 382 125 362 Q140 342 186 342 Q231 342 246 362 Q261 382 261 463 ZM217 -9 L556 752 L617 752 L278 -9 L217 -9 Z" /><glyph glyph-name="ampersand" unicode="&amp;" d="M385 151 L209 374 Q208 374 204.5 374.5 Q201 375 199 375 Q166 375 148 346 Q130 317 130 264 L130 194 Q130 111 159 80.5 Q188 50 264 50 Q328 50 356.5 73.5 Q385 97 385 148 L385 151 ZM437 88 Q422 36 381 13.5 Q340 -9 259 -9 Q143 -9 99.5 30 Q56 69 56 169 L56 287 Q56 350 82 388.5 Q108 427 157 434 L128 472 L126 476 Q80 535 80 605 Q80 680 124.5 716 Q169 752 261 752 Q354 752 388 718.5 Q422 685 422 592 L422 550 L358 550 L358 588 Q358 648 338 667 Q318 686 262 686 Q206 686 180.5 667 Q155 648 155 604 Q155 586 161.5 567.5 Q168 549 180 533 L392 253 L392 417 L456 417 L456 183 L562 47 L510 -4 L437 88 Z" /><glyph glyph-name="quotesingle" unicode="&#39;" d="M100 717 L100 441 L49 441 L49 717 L100 717 Z" /><glyph glyph-name="parenleft" unicode="(" d="M167 230 Q167 118 187 87 Q207 56 263 55 L263 -9 L258 -9 Q167 -9 131 46 Q95 101 95 247 L95 495 Q95 641 131.5 696.5 Q168 752 258 752 L263 752 L263 686 Q207 686 187 655 Q167 624 167 512 L167 230 Z" /><glyph glyph-name="parenright" unicode=")" d="M143 512 Q143 623 122.5 654 Q102 685 45 687 L45 752 L50 752 Q141 752 177.5 696.5 Q214 641 214 495 L214 247 Q214 101 178 46 Q142 -9 50 -9 L45 -9 L45 55 Q102 56 122.5 87.5 Q143 119 143 230 L143 512 Z" /><glyph glyph-name="asterisk" unicode="*" d="M143 514 L195 482 L134 358 L81 390 L143 514 ZM251 514 L313 390 L259 358 L199 482 L251 514 ZM250 595 L198 628 L259 752 L312 719 L250 595 ZM258 585 L384 585 L384 524 L258 524 L258 585 ZM144 595 L82 719 L134 752 L196 628 L144 595 ZM140 524 L15 524 L15 585 L140 585 L140 524 Z" /><glyph glyph-name="plus" unicode="+" d="M452 611 L452 330 L726 330 L726 281 L452 281 L452 0 L403 0 L403 281 L127 281 L127 330 L403 330 L403 611 L452 611 Z" /><glyph glyph-name="comma" unicode="," d="M85 -109 L85 -70 Q104 -69 111.5 -61 Q119 -53 119 -35 L119 0 L90 0 L90 100 L166 100 L166 -17 Q166 -67 151 -88.5 Q136 -110 102 -110 Q97 -110 93 -110 Q89 -110 85 -109 Z" /><glyph glyph-name="hyphen" unicode="-" d="M42 234 L42 298 L266 298 L266 234 L42 234 Z" /><glyph glyph-name="period" unicode="." d="M90 0 L90 100 L166 100 L166 0 L90 0 Z" /><glyph glyph-name="slash" unicode="/" d="M-40 -95 L203 752 L259 752 L17 -95 L-40 -95 Z" /><glyph glyph-name="zero" unicode="0" d="M235 60 L278 60 Q340 60 362 91.5 Q384 123 384 240 L384 502 Q384 619 362 651 Q340 683 278 683 L235 683 Q173 683 150.5 651 Q128 619 128 502 L128 240 Q128 123 150.5 91.5 Q173 60 235 60 ZM216 -9 Q127 -9 89.5 46 Q52 101 52 242 L52 500 Q52 641 89.5 696.5 Q127 752 216 752 L296 752 Q386 752 423 696.5 Q460 641 460 500 L460 242 Q460 101 423 46 Q386 -9 296 -9 L216 -9 Z" /><glyph glyph-name="one" unicode="1" d="M271 0 L271 662 L117 473 L71 517 L255 743 L341 743 L341 0 L271 0 Z" /><glyph glyph-name="two" unicode="2" d="M374 502 L374 560 Q374 626 351.5 654.5 Q329 683 276 683 L236 683 Q178 683 157 655.5 Q136 628 136 533 L136 507 L64 507 L64 529 Q64 655 100.5 703.5 Q137 752 228 752 L288 752 Q378 752 414.5 707 Q451 662 451 544 L451 469 Q451 432 445 408 Q439 384 426 365 Q397 323 287 286 Q249 273 229 265 Q169 243 147 209.5 Q125 176 125 98 L125 71 L446 71 L446 0 L55 0 L55 98 Q55 154 61.5 192 Q68 230 82 251 Q108 291 226 337 L227 337 Q238 342 260 350 Q341 381 357 402 Q366 414 370 438.5 Q374 463 374 502 Z" /><glyph glyph-name="three" unicode="3" d="M367 560 Q367 626 345 654.5 Q323 683 273 683 L234 683 Q179 683 159.5 656 Q140 629 140 533 L140 519 L69 519 L69 529 Q69 654 104.5 703 Q140 752 227 752 L284 752 Q370 752 406 706.5 Q442 661 442 548 Q442 466 421 432 Q400 398 347 385 Q402 365 425.5 327 Q449 289 449 219 Q449 87 412 39 Q375 -9 282 -9 L221 -9 Q130 -9 93 39.5 Q56 88 56 214 L56 244 L129 244 L129 209 Q129 115 150 87.5 Q171 60 230 60 L270 60 Q323 60 346 88 Q369 116 369 183 L369 240 Q369 302 346.5 324 Q324 346 261 346 L211 346 L211 413 L265 413 Q320 413 343.5 436 Q367 459 367 512 L367 560 Z" /><glyph glyph-name="four" unicode="4" d="M338 240 L338 663 L97 240 L338 240 ZM338 0 L338 170 L40 170 L40 274 L307 743 L406 743 L406 240 L474 240 L474 170 L406 170 L406 0 L338 0 Z" /><glyph glyph-name="five" unicode="5" d="M447 219 Q447 87 411 39 Q375 -9 284 -9 L223 -9 Q137 -9 99.5 38 Q62 85 62 194 L62 213 L134 213 L134 197 Q134 113 154.5 86.5 Q175 60 232 60 L272 60 Q324 60 346.5 88 Q369 116 369 183 L369 265 Q369 378 345 407 Q321 436 249 436 Q202 436 175 419 Q148 402 142 368 L79 368 L79 743 L424 743 L424 673 L148 673 L148 451 Q164 478 195.5 491.5 Q227 505 275 505 Q365 505 406 457.5 Q447 410 447 305 L447 219 Z" /><glyph glyph-name="six" unicode="6" d="M460 214 Q460 88 423 39.5 Q386 -9 295 -9 L220 -9 Q129 -9 92.5 39.5 Q56 88 56 214 L56 529 Q56 655 92.5 703.5 Q129 752 220 752 L291 752 Q370 752 409 707.5 Q448 663 448 571 L448 563 L378 563 L378 573 Q378 633 356.5 658 Q335 683 283 683 L225 683 Q166 683 145.5 655.5 Q125 628 125 533 L125 392 Q156 427 191.5 441.5 Q227 456 284 456 Q379 456 419.5 416.5 Q460 377 460 286 L460 214 ZM229 59 L289 59 Q347 59 368 86.5 Q389 114 389 208 L389 234 Q389 328 368.5 355.5 Q348 383 289 383 L229 383 Q170 383 149.5 356 Q129 329 129 234 L129 208 Q129 113 150 86 Q171 59 229 59 Z" /><glyph glyph-name="seven" unicode="7" d="M104 0 L373 673 L63 673 L63 743 L432 743 L432 630 L181 0 L104 0 Z" /><glyph glyph-name="eight" unicode="8" d="M128 239 L128 180 Q128 113 151.5 84.5 Q175 56 230 56 L283 56 Q337 56 360.5 85 Q384 114 384 180 L384 239 Q384 297 358.5 321.5 Q333 346 274 346 L238 346 Q179 346 153.5 321.5 Q128 297 128 239 ZM129 588 L129 516 Q129 464 153 441 Q177 418 232 418 L280 418 Q334 418 358 441 Q382 464 382 516 L382 588 Q382 640 358 663 Q334 686 280 686 L232 686 Q177 686 153 663 Q129 640 129 588 ZM297 752 Q383 752 418.5 707 Q454 662 454 548 Q454 466 433 432 Q412 398 360 385 Q414 365 437.5 327 Q461 289 461 219 Q461 87 424.5 39 Q388 -9 294 -9 L217 -9 Q124 -9 87 39 Q50 87 50 219 Q50 289 73.5 327 Q97 365 152 385 Q99 398 78.5 432 Q58 466 58 548 Q58 662 93.5 707 Q129 752 214 752 L297 752 Z" /><glyph glyph-name="nine" unicode="9" d="M282 683 L221 683 Q163 683 142.5 657 Q122 631 122 538 L122 512 Q122 419 142.5 392.5 Q163 366 221 366 L282 366 Q340 366 360.5 392.5 Q381 419 381 512 L381 538 Q381 631 360.5 657 Q340 683 282 683 ZM385 357 Q354 323 319 308.5 Q284 294 228 294 Q133 294 91.5 333 Q50 372 50 462 L50 529 Q50 655 87 703.5 Q124 752 215 752 L290 752 Q381 752 418 703.5 Q455 655 455 529 L455 214 Q455 88 418 39.5 Q381 -9 290 -9 L204 -9 Q124 -9 85.5 35.5 Q47 80 47 171 L47 179 L118 179 L118 170 Q118 109 139 84.5 Q160 60 212 60 L286 60 Q344 60 364.5 87 Q385 114 385 209 L385 357 Z" /><glyph glyph-name="colon" unicode=":" d="M103 0 L103 100 L178 100 L178 0 L103 0 ZM103 420 L103 519 L178 519 L178 420 L103 420 Z" /><glyph glyph-name="semicolon" unicode=";" d="M103 420 L103 519 L178 519 L178 420 L103 420 ZM98 -109 L98 -69 Q117 -68 124 -60.5 Q131 -53 131 -35 L131 0 L103 0 L103 100 L178 100 L178 -17 Q178 -67 163 -88.5 Q148 -110 114 -110 Q109 -110 105 -110 Q101 -110 98 -109 Z" /><glyph glyph-name="less" unicode="&lt;" d="M721 513 L210 305 L721 99 L721 44 L132 285 L132 326 L721 568 L721 513 Z" /><glyph glyph-name="equal" unicode="=" d="M726 237 L726 188 L127 188 L127 237 L726 237 ZM726 423 L726 374 L127 374 L127 423 L726 423 Z" /><glyph glyph-name="greater" unicode="&gt;" d="M721 326 L721 285 L132 44 L132 99 L643 305 L132 513 L132 568 L721 326 Z" /><glyph glyph-name="question" unicode="?" d="M153 195 L153 257 Q153 284 157 300.5 Q161 317 170 330 Q188 354 243 379 Q265 390 277 396 Q322 419 335 440.5 Q348 462 348 521 L348 582 Q348 643 327.5 662.5 Q307 682 246 682 L195 682 Q145 682 123 659.5 Q101 637 101 586 L101 513 L34 513 L34 576 Q34 668 70 710 Q106 752 185 752 L263 752 Q346 752 382.5 713.5 Q419 675 419 587 L419 513 Q419 449 403.5 411 Q388 373 354 351 Q329 336 287 319 Q276 314 271 312 Q239 297 232 284.5 Q225 272 225 248 L225 195 L153 195 ZM154 0 L154 93 L223 93 L223 0 L154 0 Z" /><glyph glyph-name="at" unicode="@" d="M649 418 L679 481 L726 481 L657 200 Q652 178 650 168.5 Q648 159 648 154 Q648 132 662.5 120 Q677 108 702 108 Q728 108 755 118.5 Q782 129 807 149 Q856 187 883 251 Q910 315 910 392 Q910 519 811 600.5 Q712 682 556 682 Q469 682 396.5 657.5 Q324 633 265 583 Q192 520 154.5 437.5 Q117 355 117 256 Q117 169 147 103.5 Q177 38 239 -12 Q290 -53 361 -76 Q432 -99 511 -99 Q597 -99 678.5 -74.5 Q760 -50 829 -3 L848 -30 Q775 -86 693 -113.5 Q611 -141 521 -141 Q426 -141 348 -118 Q270 -95 210 -49 Q133 10 96 88 Q59 166 59 269 Q59 371 102 459.5 Q145 548 228 617 Q294 671 377 699 Q460 727 557 727 Q638 727 711 705 Q784 683 836 643 Q900 594 933 529.5 Q966 465 966 389 Q966 304 935 234.5 Q904 165 844 118 Q809 91 769.5 77 Q730 63 689 63 Q641 63 617 81.5 Q593 100 593 138 Q593 140 593.5 145 Q594 150 594 153 Q569 109 531 86 Q493 63 447 63 Q370 63 330 104.5 Q290 146 290 227 Q290 342 357.5 421 Q425 500 522 500 Q569 500 601 479.5 Q633 459 649 418 ZM605 235 L636 359 Q627 405 598.5 431.5 Q570 458 529 458 Q452 458 401.5 391 Q351 324 351 222 Q351 167 378.5 136 Q406 105 455 105 Q508 105 549.5 140.5 Q591 176 605 235 Z" /><glyph glyph-name="A" unicode="a" d="M-1 0 L212 743 L298 743 L499 0 L419 0 L377 160 L119 160 L73 0 L-1 0 ZM138 229 L359 229 L253 642 L138 229 Z" /><glyph glyph-name="B" unicode="b" d="M408 176 L408 244 Q408 306 377.5 329.5 Q347 353 254 353 L135 353 L135 69 L254 69 Q348 69 378 92 Q408 115 408 176 ZM483 168 Q483 75 436 37.5 Q389 0 271 0 L62 0 L62 743 L256 743 Q384 743 426 709.5 Q468 676 468 587 L468 522 Q468 468 447.5 438 Q427 408 379 391 Q433 377 458 340.5 Q483 304 483 239 L483 168 ZM135 424 L249 424 Q338 424 367 443 Q396 462 396 514 L396 596 Q396 640 367.5 656.5 Q339 673 249 673 L135 673 L135 424 Z" /><glyph glyph-name="C" unicode="c" d="M472 250 Q473 242 473 233 Q473 224 473 206 Q473 96 430.5 43.5 Q388 -9 299 -9 L228 -9 Q180 -9 143 8 Q106 25 86 56 Q69 82 62 117 Q55 152 55 225 L55 250 L55 500 Q55 634 100 693 Q145 752 247 752 L286 752 Q387 752 430.5 702 Q474 652 474 538 Q474 524 474 516.5 Q474 509 473 503 L394 503 L394 512 Q394 609 370 643.5 Q346 678 284 678 L244 678 Q180 678 156 642 Q132 606 132 500 L132 250 Q132 125 154 94.5 Q176 64 244 64 L284 64 Q351 64 372.5 93.5 Q394 123 394 232 L394 250 L472 250 Z" /><glyph glyph-name="D" unicode="d" d="M135 69 L234 69 Q299 69 335.5 79 Q372 89 392 112 Q411 135 419 167.5 Q427 200 427 272 L427 471 Q427 542 419 575 Q411 608 392 631 Q372 654 335.5 664 Q299 674 234 674 L135 674 L135 69 ZM62 0 L62 743 L248 743 Q392 743 448.5 684 Q505 625 505 473 L505 269 Q505 117 448.5 58.5 Q392 0 248 0 L62 0 Z" /><glyph glyph-name="E" unicode="e" d="M393 72 L393 0 L62 0 L62 743 L393 743 L393 671 L135 671 L135 422 L375 422 L375 350 L135 350 L135 72 L393 72 Z" /><glyph glyph-name="F" unicode="f" d="M62 0 L62 743 L381 743 L381 671 L135 671 L135 412 L362 412 L362 340 L135 340 L135 0 L62 0 Z" /><glyph glyph-name="G" unicode="g" d="M132 250 Q132 125 154 94.5 Q176 64 244 64 L307 64 Q375 64 396.5 94.5 Q418 125 418 250 L418 298 L288 298 L288 370 L496 370 L496 225 Q496 152 488.5 117 Q481 82 464 56 Q444 25 407 8 Q370 -9 323 -9 L228 -9 Q180 -9 143 8 Q106 25 86 56 Q69 82 62 117 Q55 152 55 225 L55 250 L55 500 Q55 634 100 693 Q145 752 247 752 L302 752 Q402 752 446 704 Q490 656 490 547 L490 522 L411 523 Q410 612 386 645 Q362 678 300 678 L244 678 Q180 678 156 642 Q132 606 132 500 L132 250 Z" /><glyph glyph-name="H" unicode="h" d="M62 0 L62 743 L135 743 L135 420 L431 420 L431 743 L505 743 L505 0 L431 0 L431 348 L135 348 L135 0 L62 0 Z" /><glyph glyph-name="I" unicode="i" d="M64 0 L64 743 L137 743 L137 0 L64 0 Z" /><glyph glyph-name="J" unicode="j" d="M375 743 L375 164 Q375 66 336 28.5 Q297 -9 194 -9 Q91 -9 52 28.5 Q13 66 13 164 L13 250 L86 250 L86 192 Q86 114 108.5 87.5 Q131 61 193 61 Q255 61 278 88 Q301 115 301 192 L301 743 L375 743 Z" /><glyph glyph-name="K" unicode="k" d="M62 0 L62 743 L135 743 L135 423 L173 423 L411 743 L493 743 L231 390 L527 0 L434 0 L167 353 L135 353 L135 0 L62 0 Z" /><glyph glyph-name="L" unicode="l" d="M62 0 L62 743 L135 743 L135 73 L356 73 L356 0 L62 0 Z" /><glyph glyph-name="M" unicode="m" d="M62 0 L62 743 L179 743 L386 89 L609 743 L721 743 L721 0 L654 0 L654 679 L423 0 L348 0 L129 679 L129 0 L62 0 Z" /><glyph glyph-name="N" unicode="n" d="M62 0 L62 743 L170 743 L446 83 L446 743 L517 743 L517 0 L405 0 L133 648 L133 0 L62 0 Z" /><glyph glyph-name="O" unicode="o" d="M301 678 L256 678 Q186 678 159.5 642.5 Q133 607 133 500 L133 242 Q133 135 159.5 99.5 Q186 64 256 64 L301 64 Q372 64 398 99.5 Q424 135 424 242 L424 500 Q424 607 398 642.5 Q372 678 301 678 ZM311 752 Q412 752 457.5 693 Q503 634 503 500 L503 242 Q503 108 457.5 49.5 Q412 -9 311 -9 L247 -9 Q145 -9 100 49.5 Q55 108 55 242 L55 500 Q55 634 100 693 Q145 752 247 752 L311 752 Z" /><glyph glyph-name="P" unicode="p" d="M472 473 Q472 366 430.5 327.5 Q389 289 261 289 L135 289 L135 0 L62 0 L62 743 L261 743 Q389 743 430.5 704 Q472 665 472 558 L472 473 ZM250 673 L135 673 L135 358 L250 358 Q341 358 366.5 378 Q392 398 392 453 L392 580 Q392 634 367.5 653.5 Q343 673 250 673 Z" /><glyph glyph-name="Q" unicode="q" d="M301 678 L256 678 Q186 678 159.5 642.5 Q133 607 133 500 L133 242 Q133 135 159.5 99.5 Q186 64 256 64 L301 64 Q342 64 367 75.5 Q392 87 405 111 L240 247 L278 300 L422 180 Q423 195 423.5 208.5 Q424 222 424 242 L424 500 Q424 607 398 642.5 Q372 678 301 678 ZM311 752 Q412 752 457.5 693 Q503 634 503 500 L503 242 Q503 200 500.5 172 Q498 144 492 122 L552 73 L515 19 L465 61 Q444 26 405 8.5 Q366 -9 311 -9 L247 -9 Q145 -9 100 49.5 Q55 108 55 242 L55 500 Q55 634 100 693 Q145 752 247 752 L311 752 Z" /><glyph glyph-name="R" unicode="r" d="M135 296 L135 0 L62 0 L62 743 L271 743 Q399 743 441 704 Q483 665 483 558 L483 490 Q483 418 455 381 Q427 344 368 336 Q423 325 448.5 288 Q474 251 474 183 L474 0 L401 0 L401 149 Q401 237 372.5 266.5 Q344 296 262 296 L135 296 ZM259 673 L135 673 L135 368 L259 368 Q350 368 376 391.5 Q402 415 402 483 L402 579 Q402 634 377.5 653.5 Q353 673 259 673 Z" /><glyph glyph-name="S" unicode="s" d="M464 258 L464 152 Q464 70 421 30.5 Q378 -9 287 -9 L220 -9 Q119 -9 79.5 35.5 Q40 80 40 203 L40 241 L117 241 L117 178 Q117 113 139 88.5 Q161 64 218 64 L291 64 Q344 64 364.5 85 Q385 106 385 163 L385 227 Q385 256 382.5 270 Q380 284 374 295 Q359 325 248 343 Q225 346 212 348 Q208 349 202 350 Q130 363 111 374 Q82 392 68.5 422.5 Q55 453 55 499 L55 591 Q55 673 98 712.5 Q141 752 232 752 L285 752 Q382 752 423 708.5 Q464 665 464 561 L464 540 L387 540 L387 564 Q387 630 365.5 654 Q344 678 287 678 L227 678 Q173 678 152.5 657 Q132 636 132 580 L132 500 Q132 438 235 424 Q258 420 272 418 Q388 399 426 365.5 Q464 332 464 258 Z" /><glyph glyph-name="T" unicode="t" d="M166 0 L166 670 L7 670 L7 742 L399 742 L399 670 L240 670 L240 0 L166 0 Z" /><glyph glyph-name="U" unicode="u" d="M279 64 Q351 64 375 90 Q399 116 399 207 L399 743 L472 743 L472 171 Q472 75 426 33 Q380 -9 275 -9 L257 -9 Q152 -9 106 33 Q60 75 60 171 L60 743 L133 743 L133 207 Q133 118 158 91 Q183 64 257 64 L279 64 Z" /><glyph glyph-name="V" unicode="v" d="M194 0 L6 743 L85 743 L239 100 L407 743 L481 743 L280 0 L194 0 Z" /><glyph glyph-name="W" unicode="w" d="M515 0 L390 595 L257 0 L171 0 L10 743 L84 743 L216 95 L355 743 L428 743 L560 95 L698 743 L771 743 L601 0 L515 0 Z" /><glyph glyph-name="X" unicode="x" d="M2 0 L183 390 L15 743 L93 743 L234 437 L372 743 L445 743 L278 376 L458 0 L377 0 L226 329 L76 0 L2 0 Z" /><glyph glyph-name="Y" unicode="y" d="M186 0 L186 311 L-9 743 L72 743 L221 384 L371 743 L445 743 L258 311 L258 0 L186 0 Z" /><glyph glyph-name="Z" unicode="z" d="M22 0 L22 69 L311 671 L32 671 L32 743 L386 743 L386 673 L98 72 L391 72 L391 0 L22 0 Z" /><glyph glyph-name="bracketleft" unicode="[" d="M117 0 L117 743 L252 743 L252 683 L184 683 L184 60 L252 60 L252 0 L117 0 Z" /><glyph glyph-name="backslash" unicode="\" d="M44 752 L287 -95 L231 -95 L-12 752 L44 752 Z" /><glyph glyph-name="bracketright" unicode="]" d="M206 743 L206 0 L71 0 L71 60 L140 60 L140 683 L71 683 L71 743 L206 743 Z" /><glyph glyph-name="asciicircum" unicode="^" d="M547 729 L812 451 L741 451 L512 678 L283 451 L211 451 L477 729 L547 729 Z" /><glyph glyph-name="underscore" unicode="_" d="M512 -191 L512 -241 L0 -241 L0 -191 L512 -191 Z" /><glyph glyph-name="grave" unicode="`" d="M325 584 L272 584 L131 759 L220 759 L325 584 Z" /><glyph glyph-name="a" unicode="a" d="M200 51 Q255 51 278 76 Q301 101 301 162 Q301 221 282 241.5 Q263 262 208 262 Q153 262 134 240 Q115 218 115 151 Q115 97 134.5 74 Q154 51 200 51 ZM299 0 L299 47 Q282 17 253 3.5 Q224 -10 174 -10 Q109 -10 77 22.5 Q45 55 45 122 L45 192 Q45 257 80 291 Q115 325 183 325 Q225 325 253 314 Q281 303 299 280 L299 361 Q299 427 281.5 447.5 Q264 468 210 468 Q166 468 147.5 453 Q129 438 129 403 L129 378 L61 378 L61 402 Q61 469 97.5 500 Q134 531 213 531 Q299 531 332 498 Q365 465 365 378 L365 0 L299 0 Z" /><glyph glyph-name="b" unicode="b" d="M61 0 L61 756 L127 756 L127 463 Q148 496 179.5 512.5 Q211 529 251 529 Q326 529 359 478 Q392 427 392 307 L392 228 Q392 98 360 44.5 Q328 -9 253 -9 Q210 -9 179 7.5 Q148 24 123 61 L123 0 L61 0 ZM127 301 L127 218 Q127 124 150.5 89.5 Q174 55 233 55 Q282 55 302 90 Q322 125 322 215 L322 304 Q322 395 302 430 Q282 465 233 465 Q174 465 150.5 430.5 Q127 396 127 301 Z" /><glyph glyph-name="c" unicode="c" d="M382 192 L382 170 Q382 76 343.5 33.5 Q305 -9 219 -9 Q124 -9 86 37 Q48 83 48 199 L48 322 Q48 437 86 483 Q124 529 220 529 Q301 529 336 493 Q371 457 371 375 L371 349 L304 349 L304 359 Q304 415 283.5 438.5 Q263 462 213 462 Q158 462 138.5 436.5 Q119 411 119 322 L119 198 Q119 109 139 83 Q159 57 216 57 Q272 57 293 80 Q314 103 314 171 L314 192 L382 192 Z" /><glyph glyph-name="d" unicode="d" d="M312 301 Q312 396 288 430.5 Q264 465 206 465 Q158 465 138 430.5 Q118 396 118 304 L118 215 Q118 124 138 89.5 Q158 55 206 55 Q264 55 288 89.5 Q312 124 312 218 L312 301 ZM378 0 L317 0 L317 61 Q292 25 260.5 8 Q229 -9 186 -9 Q110 -9 78 44.5 Q46 98 46 228 L46 307 Q46 426 79.5 477.5 Q113 529 189 529 Q229 529 259.5 512.5 Q290 496 312 463 L312 756 L378 756 L378 0 Z" /><glyph glyph-name="e" unicode="e" d="M119 312 L324 312 L324 344 Q324 416 302 441.5 Q280 467 221 467 Q163 467 141 441.5 Q119 416 119 344 L119 312 ZM119 247 L119 198 Q119 107 139 82.5 Q159 58 219 58 Q282 58 305 76.5 Q328 95 328 145 L328 161 L389 161 L389 144 Q389 63 349.5 27 Q310 -9 219 -9 Q125 -9 86.5 37 Q48 83 48 199 L48 322 Q48 437 86 483 Q124 529 220 529 Q315 529 352.5 483.5 Q390 438 390 322 L390 247 L119 247 Z" /><glyph glyph-name="f" unicode="f" d="M78 0 L78 458 L15 458 L15 519 L78 519 L78 612 Q78 687 111.5 721.5 Q145 756 218 756 Q230 756 255 754 Q257 754 258 754 L258 695 Q251 696 243.5 696.5 Q236 697 221 697 Q179 697 162 677.5 Q145 658 145 606 L145 519 L258 519 L258 458 L145 458 L145 0 L78 0 Z" /><glyph glyph-name="g" unicode="g" d="M312 248 L312 301 Q312 396 288 430.5 Q264 465 206 465 Q158 465 138 430.5 Q118 396 118 304 L118 245 Q118 154 138 119 Q158 84 206 84 Q264 84 288 119 Q312 154 312 248 ZM378 519 L378 -18 Q378 -113 340.5 -152 Q303 -191 212 -191 Q135 -191 96.5 -164.5 Q58 -138 58 -84 L58 -57 L126 -57 Q126 -59 125.5 -63 Q125 -67 125 -69 Q125 -102 145.5 -116.5 Q166 -131 211 -131 Q270 -131 291 -108 Q312 -85 312 0 L312 86 Q290 53 259.5 37 Q229 21 189 21 Q113 21 79.5 72 Q46 123 46 242 L46 292 Q46 422 78 475.5 Q110 529 186 529 Q228 529 260 511.5 Q292 494 317 458 L317 519 L378 519 Z" /><glyph glyph-name="h" unicode="h" d="M321 0 L321 330 Q321 408 302 438 Q283 468 237 468 Q179 468 154 428.5 Q129 389 129 291 L129 0 L63 0 L63 756 L129 756 L129 467 Q150 499 179.5 514 Q209 529 251 529 Q324 529 355.5 487 Q387 445 387 348 L387 0 L321 0 Z" /><glyph glyph-name="i" unicode="i" d="M55 0 L55 519 L121 519 L121 0 L55 0 ZM55 656 L55 743 L121 743 L121 656 L55 656 Z" /><glyph glyph-name="j" unicode="j" d="M57 656 L57 743 L123 743 L123 656 L57 656 ZM57 -46 L57 519 L123 519 L123 -45 Q123 -133 101.5 -162.5 Q80 -192 23 -192 Q18 -192 12 -191.5 Q6 -191 0 -189 L0 -129 L9 -129 Q37 -129 47 -115.5 Q57 -102 57 -46 Z" /><glyph glyph-name="k" unicode="k" d="M60 0 L60 756 L126 756 L126 316 L158 316 L291 519 L364 519 L210 286 L394 0 L316 0 L158 247 L126 247 L126 0 L60 0 Z" /><glyph glyph-name="l" unicode="l" d="M58 0 L58 756 L124 756 L124 0 L58 0 Z" /><glyph glyph-name="m" unicode="m" d="M361 452 Q380 491 410.5 510 Q441 529 486 529 Q555 529 585 487.5 Q615 446 615 348 L615 0 L549 0 L549 330 Q549 407 531 437.5 Q513 468 469 468 Q416 468 393.5 429 Q371 390 371 291 L371 0 L304 0 L304 330 Q304 408 286.5 438 Q269 468 227 468 Q173 468 150 428.5 Q127 389 127 291 L127 0 L61 0 L61 519 L122 519 L122 459 Q141 494 171 511.5 Q201 529 243 529 Q289 529 318.5 509.5 Q348 490 361 452 Z" /><glyph glyph-name="n" unicode="n" d="M319 0 L319 330 Q319 408 300 438 Q281 468 235 468 Q177 468 152 428.5 Q127 389 127 291 L127 0 L61 0 L61 519 L122 519 L122 459 Q142 494 173.5 511.5 Q205 529 249 529 Q322 529 353.5 487 Q385 445 385 348 L385 0 L319 0 Z" /><glyph glyph-name="o" unicode="o" d="M119 322 L119 198 Q119 109 139.5 83 Q160 57 219 57 Q278 57 299 83.5 Q320 110 320 198 L320 322 Q320 410 299.5 436 Q279 462 219 462 Q160 462 139.5 435.5 Q119 409 119 322 ZM390 199 Q390 83 352.5 37 Q315 -9 219 -9 Q125 -9 86.5 37 Q48 83 48 199 L48 322 Q48 437 86 483 Q124 529 220 529 Q315 529 352.5 483.5 Q390 438 390 322 L390 199 Z" /><glyph glyph-name="p" unicode="p" d="M127 301 L127 218 Q127 124 150.5 89.5 Q174 55 233 55 Q282 55 302 90 Q322 125 322 215 L322 304 Q322 395 302 430 Q282 465 233 465 Q174 465 150.5 430.5 Q127 396 127 301 ZM392 212 Q392 93 359 42 Q326 -9 251 -9 Q211 -9 179.5 7.5 Q148 24 127 57 L127 -192 L61 -192 L61 519 L123 519 L123 458 Q148 495 179.5 512 Q211 529 253 529 Q328 529 360 475.5 Q392 422 392 292 L392 212 Z" /><glyph glyph-name="q" unicode="q" d="M309 -192 L309 57 Q288 24 257.5 7.5 Q227 -9 187 -9 Q111 -9 78 42 Q45 93 45 212 L45 292 Q45 423 77 476 Q109 529 184 529 Q226 529 258 511.5 Q290 494 315 458 L315 519 L376 519 L376 -192 L309 -192 ZM309 218 L309 301 Q309 396 285.5 430.5 Q262 465 204 465 Q156 465 136 430.5 Q116 396 116 304 L116 215 Q116 124 136 89.5 Q156 55 204 55 Q262 55 285.5 89.5 Q309 124 309 218 Z" /><glyph glyph-name="r" unicode="r" d="M125 0 L59 0 L59 519 L120 519 L120 452 Q139 491 168.5 510 Q198 529 242 529 Q299 529 324 495.5 Q349 462 349 387 L349 347 L288 347 L288 372 Q288 426 273 448.5 Q258 471 222 471 Q170 471 147.5 439.5 Q125 408 125 328 L125 0 Z" /><glyph glyph-name="s" unicode="s" d="M365 179 L365 110 Q365 50 331 20.5 Q297 -9 228 -9 L169 -9 Q97 -9 69.5 17 Q42 43 42 113 L42 166 L108 166 L108 134 Q108 82 122 67 Q136 52 175 52 L221 52 Q262 52 278.5 67 Q295 82 295 118 L295 167 Q295 222 205 237 Q189 239 181 241 Q90 256 69 275.5 Q48 295 48 340 L48 410 Q48 470 82 499.5 Q116 529 186 529 L232 529 Q304 529 331.5 503 Q359 477 359 407 L359 385 L293 385 L293 400 Q293 438 278 452.5 Q263 467 226 467 L192 467 Q151 467 134.5 453 Q118 439 118 403 L118 353 Q118 312 221 297 Q249 293 265 290 Q319 282 342 256.5 Q365 231 365 179 Z" /><glyph glyph-name="t" unicode="t" d="M73 458 L19 458 L19 519 L73 519 L73 645 L140 645 L140 519 L308 519 L308 458 L140 458 L140 161 Q140 90 153 70.5 Q166 51 202 51 Q235 51 248.5 69 Q262 87 262 130 L262 178 L323 178 L323 142 Q323 61 293 26 Q263 -9 194 -9 Q127 -9 100 23 Q73 55 73 141 L73 458 Z" /><glyph glyph-name="u" unicode="u" d="M123 519 L123 190 Q123 113 142.5 82 Q162 51 208 51 Q266 51 290.5 90.5 Q315 130 315 229 L315 519 L381 519 L381 0 L320 0 L320 61 Q300 26 268.5 8.5 Q237 -9 193 -9 Q120 -9 88.5 32.5 Q57 74 57 171 L57 519 L123 519 Z" /><glyph glyph-name="v" unicode="v" d="M151 0 L18 519 L87 519 L200 65 L313 519 L378 519 L245 0 L151 0 Z" /><glyph glyph-name="w" unicode="w" d="M358 519 L456 67 L547 519 L616 519 L503 0 L414 0 L314 463 L214 0 L125 0 L12 519 L80 519 L171 67 L270 519 L358 519 Z" /><glyph glyph-name="x" unicode="x" d="M2 0 L155 271 L16 519 L91 519 L194 330 L295 519 L365 519 L228 276 L383 0 L307 0 L190 209 L72 0 L2 0 Z" /><glyph glyph-name="y" unicode="y" d="M151 0 L18 519 L87 519 L200 65 L313 519 L378 519 L245 0 Q216 -113 184.5 -152.5 Q153 -192 100 -192 Q89 -192 78 -191 Q67 -190 55 -187 L55 -125 Q64 -126 69.5 -126.5 Q75 -127 79 -127 Q114 -127 135 -106.5 Q156 -86 168 -41 L178 0 L151 0 Z" /><glyph glyph-name="z" unicode="z" d="M25 0 L25 69 L244 458 L47 458 L47 519 L311 519 L311 452 L91 62 L311 62 L311 0 L25 0 Z" /><glyph glyph-name="braceleft" unicode="{" d="M427 685 L409 685 Q343 685 320 660.5 Q297 636 297 558 L297 437 Q297 353 275.5 317 Q254 281 199 265 Q254 250 275.5 214 Q297 178 297 93 L297 -27 Q297 -105 319.5 -129.5 Q342 -154 405 -154 Q408 -154 415.5 -153.5 Q423 -153 427 -153 L427 -207 L404 -207 Q305 -207 270.5 -170.5 Q236 -134 236 -22 L236 100 Q236 177 207.5 208.5 Q179 240 110 240 Q106 240 99 239.5 Q92 239 87 239 L87 293 Q92 293 99 292.5 Q106 292 110 292 Q179 292 207.5 323.5 Q236 355 236 432 L236 553 Q236 665 271 702 Q306 739 404 739 L427 739 L427 685 Z" /><glyph glyph-name="bar" unicode="|" d="M284 783 L284 -241 L230 -241 L230 783 L284 783 Z" /><glyph glyph-name="braceright" unicode="}" d="M278 553 L278 432 Q278 355 306.5 323.5 Q335 292 404 292 Q407 292 414.5 292.5 Q422 293 426 293 L426 239 Q422 239 414.5 239.5 Q407 240 404 240 Q335 240 306.5 208.5 Q278 177 278 100 L278 -22 Q278 -134 243 -170.5 Q208 -207 110 -207 L86 -207 L86 -153 L106 -153 Q171 -153 193.5 -128.5 Q216 -104 216 -27 L216 93 Q216 179 237.5 214.5 Q259 250 315 265 Q259 281 237.5 316.5 Q216 352 216 437 L216 558 Q216 637 193.5 661.5 Q171 686 109 686 Q105 686 97.5 685.5 Q90 685 86 685 L86 739 L110 739 Q208 739 243 702 Q278 665 278 553 Z" /><glyph glyph-name="asciitilde" unicode="~" d="M765 319 Q714 283 666 265 Q618 247 572 247 Q522 247 442 276 Q432 279 427 281 L419 284 Q331 316 283 316 Q241 316 195 297 Q149 278 89 236 L89 292 Q142 329 190 347 Q238 365 283 365 Q335 365 419 334 Q424 332 428 331 Q432 329 443 325 Q527 295 572 295 Q614 295 660 314 Q706 333 765 375 L765 319 Z" /><glyph glyph-name="Aring" unicode="å" d="M190 874 Q190 846 208.5 827.5 Q227 809 254 809 Q282 809 300.5 827.5 Q319 846 319 874 Q319 902 300.5 920.5 Q282 939 254 939 Q227 939 208.5 920 Q190 901 190 874 ZM142 875 Q142 922 174 954 Q206 986 253 986 Q301 986 334 954 Q367 922 367 875 Q367 827 334 794 Q301 761 253 761 Q206 761 174 794 Q142 827 142 875 ZM-1 0 L208 731 L301 731 L499 0 L419 0 L377 160 L119 160 L73 0 L-1 0 ZM138 229 L359 229 L253 642 L138 229 Z" /><glyph glyph-name="aring" unicode="å" d="M147 685 Q147 656 167.5 635.5 Q188 615 218 615 Q248 615 268.5 635 Q289 655 289 685 Q289 715 268.5 736 Q248 757 218 757 Q188 757 167.5 736.5 Q147 716 147 685 ZM94 686 Q94 739 130 774.5 Q166 810 218 810 Q271 810 306.5 774.5 Q342 739 342 686 Q342 634 306.5 598 Q271 562 218 562 Q166 562 130 598 Q94 634 94 686 ZM200 51 Q255 51 278 76 Q301 101 301 162 Q301 221 282 241.5 Q263 262 208 262 Q153 262 134 240 Q115 218 115 151 Q115 97 134.5 74 Q154 51 200 51 ZM299 0 L299 47 Q282 17 253 3.5 Q224 -10 174 -10 Q109 -10 77 22.5 Q45 55 45 122 L45 192 Q45 257 80 291 Q115 325 183 325 Q225 325 253 314 Q281 303 299 280 L299 361 Q299 427 281.5 447.5 Q264 468 210 468 Q166 468 147.5 453 Q129 438 129 403 L129 378 L61 378 L61 402 Q61 469 97.5 500 Q134 531 213 531 Q299 531 332 498 Q365 465 365 378 L365 0 L299 0 Z" /><glyph glyph-name="dagger" unicode="&#x2020;" d="M165 743 L234 743 L234 532 L349 532 L349 470 L234 470 L234 -9 L165 -9 L165 470 L49 470 L49 532 L165 532 L165 743 Z" /><glyph glyph-name="degree" unicode="°" d="M273 587 Q273 630 242.5 660.5 Q212 691 169 691 Q126 691 95.5 660.5 Q65 630 65 587 Q65 544 95.5 514 Q126 484 169 484 Q213 484 243 514 Q273 544 273 587 ZM169 726 Q227 726 267 685.5 Q307 645 307 587 Q307 530 266.5 489 Q226 448 168 448 Q110 448 70 488.5 Q30 529 30 587 Q30 645 70.5 685.5 Q111 726 169 726 Z" /><glyph glyph-name="cent" unicode="¢" d="M181 82 L283 461 Q281 461 277 462 Q259 463 251 463 Q198 463 179 436.5 Q160 410 160 322 L160 198 Q160 142 165 116.5 Q170 91 181 82 ZM423 192 L423 170 Q423 73 383.5 31.5 Q344 -10 251 -10 Q240 -10 229 -8.5 Q218 -7 207 -5 L173 -131 L124 -131 L162 8 Q124 26 106 73 Q88 120 88 199 L88 322 Q88 434 126 482 Q164 530 252 530 Q261 530 272.5 529 Q284 528 299 527 L330 641 L380 641 L345 513 Q380 499 395.5 466.5 Q411 434 411 375 L411 349 L345 349 L345 359 Q345 389 340 408 Q335 427 325 437 L225 59 Q235 58 247 57.5 Q259 57 260 57 Q312 57 333.5 82.5 Q355 108 355 171 L355 192 L423 192 Z" /><glyph glyph-name="sterling" unicode="£" d="M473 71 L473 0 L33 0 L33 71 Q83 77 100 99.5 Q117 122 117 189 L117 253 L114 295 L33 295 L33 364 L111 364 L105 521 Q105 527 104.5 537 Q104 547 104 551 Q104 655 142.5 699 Q181 743 272 743 L304 743 Q391 743 427.5 704.5 Q464 666 464 571 L464 529 L396 529 L396 557 Q396 627 375.5 650.5 Q355 674 300 674 L275 674 Q218 674 196.5 647 Q175 620 175 543 Q175 524 175.5 513.5 Q176 503 176 493 L183 364 L372 364 L372 295 L186 295 Q187 252 188 226.5 Q189 201 189 194 Q189 146 178.5 117.5 Q168 89 144 71 L473 71 Z" /><glyph glyph-name="section" unicode="§" d="M296 430 L165 494 Q144 478 134 456 Q124 434 124 406 Q124 379 143.5 357.5 Q163 336 214 312 L343 248 Q365 264 375.5 286.5 Q386 309 386 337 Q386 364 368 383.5 Q350 403 296 430 ZM149 161 L149 123 Q149 85 172.5 66.5 Q196 48 245 48 Q296 48 323.5 66 Q351 84 351 118 Q351 146 334 165.5 Q317 185 249 218 L174 255 Q112 285 85 319.5 Q58 354 58 402 Q58 440 73.5 471 Q89 502 122 529 Q106 552 97.5 575.5 Q89 599 89 623 Q89 687 132 719.5 Q175 752 259 752 Q336 752 372.5 723.5 Q409 695 409 635 L409 593 L344 593 L344 619 Q344 655 324.5 671.5 Q305 688 262 688 Q209 688 184 673 Q159 658 159 625 Q159 595 177.5 575 Q196 555 261 524 L336 487 Q401 455 427 422 Q453 389 453 341 Q453 303 437 272 Q421 241 388 214 Q405 191 413 167 Q421 143 421 119 Q421 56 377 22 Q333 -12 251 -12 Q163 -12 123.5 16 Q84 44 84 107 L84 161 L149 161 Z" /><glyph glyph-name="bullet" unicode="&#x2022;" d="M154 381 Q154 443 197.5 486 Q241 529 302 529 Q363 529 406.5 485.5 Q450 442 450 381 Q450 320 406 276.5 Q362 233 301 233 Q240 233 197 276.5 Q154 320 154 381 Z" /><glyph glyph-name="paragraph" unicode="¶" d="M470 705 L407 705 L407 0 L366 0 L366 705 L273 705 L273 0 L231 0 L231 391 Q144 395 93 442.5 Q42 490 42 565 Q42 644 96 692 Q150 740 239 740 L470 740 L470 705 Z" /><glyph glyph-name="germandbls" unicode="ß" d="M63 0 L63 557 Q63 667 101.5 712 Q140 757 232 757 Q317 757 357 712.5 Q397 668 397 571 Q397 498 370 461 Q343 424 282 413 Q356 408 391 367.5 Q426 327 426 248 L426 171 Q426 79 388 35 Q350 -9 272 -9 Q248 -9 226.5 -5 Q205 -1 186 7 L186 72 Q206 63 226 58 Q246 53 265 53 Q313 53 334 81.5 Q355 110 355 176 L355 234 Q355 314 321.5 344.5 Q288 375 201 375 L186 375 L186 436 Q188 436 193.5 435.5 Q199 435 202 435 Q264 435 295.5 470.5 Q327 506 327 576 Q327 636 304 665.5 Q281 695 234 695 Q176 695 152.5 660.5 Q129 626 129 537 L129 0 L63 0 Z" /><glyph glyph-name="registered" unicode="®" d="M425 536 L346 536 L346 384 L425 384 Q492 384 519 401 Q546 418 546 458 Q546 499 517.5 517.5 Q489 536 425 536 ZM437 579 Q526 579 569 550.5 Q612 522 612 462 Q612 418 585 388 Q558 358 512 351 L606 157 L534 157 L445 342 L346 342 L346 157 L283 157 L283 579 L437 579 ZM753 361 Q753 428 729 487.5 Q705 547 660 592 Q613 639 553 663.5 Q493 688 426 688 Q361 688 303 664 Q245 640 199 594 Q151 546 126 486 Q101 426 101 362 Q101 297 125.5 238 Q150 179 197 132 Q244 86 303 61 Q362 36 426 36 Q491 36 551.5 61 Q612 86 660 133 Q705 178 729 235.5 Q753 293 753 361 ZM426 728 Q502 728 569 700.5 Q636 673 687 621 Q738 570 765.5 503 Q793 436 793 362 Q793 287 766 221.5 Q739 156 687 105 Q634 52 566.5 23.5 Q499 -5 426 -5 Q353 -5 286.5 23 Q220 51 168 104 Q116 156 88.5 222.5 Q61 289 61 362 Q61 434 89 501.5 Q117 569 170 623 Q221 674 286.5 701 Q352 728 426 728 Z" /><glyph glyph-name="copyright" unicode="©" d="M537 458 Q528 498 499.5 520 Q471 542 428 542 Q367 542 333 494.5 Q299 447 299 361 Q299 278 333.5 231 Q368 184 428 184 Q473 184 504 209 Q535 234 543 278 L600 278 Q595 215 546 175 Q497 135 425 135 Q337 135 286 196 Q235 257 235 364 Q235 465 288.5 526.5 Q342 588 430 588 Q498 588 543.5 552 Q589 516 595 458 L537 458 ZM753 362 Q753 428 728.5 487.5 Q704 547 659 592 Q612 639 552.5 663.5 Q493 688 426 688 Q360 688 301.5 664 Q243 640 198 594 Q151 546 126 486.5 Q101 427 101 362 Q101 297 125.5 238 Q150 179 197 132 Q244 86 303 61 Q362 36 426 36 Q491 36 551.5 61 Q612 86 660 133 Q705 178 729 236.5 Q753 295 753 362 ZM426 728 Q501 728 568 700.5 Q635 673 687 621 Q738 570 765.5 503 Q793 436 793 362 Q793 287 766 221.5 Q739 156 687 105 Q634 52 566.5 23.5 Q499 -5 426 -5 Q354 -5 287.5 23 Q221 51 168 104 Q116 156 88.5 222.5 Q61 289 61 362 Q61 434 89 501.5 Q117 569 170 623 Q221 674 286.5 701 Q352 728 426 728 Z" /><glyph glyph-name="trademark" unicode="&#x2122;" d="M469 727 L552 516 L630 727 L688 727 L688 462 L653 462 L653 696 L564 462 L540 462 L447 696 L447 462 L411 462 L411 727 L469 727 ZM347 727 L347 699 L261 699 L261 462 L220 462 L220 699 L132 699 L132 727 L347 727 Z" /><glyph glyph-name="acute" unicode="´" d="M188 584 L292 759 L381 759 L241 584 L188 584 Z" /><glyph glyph-name="dieresis" unicode="¨" d="M296 617 L296 710 L376 710 L376 617 L296 617 ZM136 617 L136 710 L216 710 L216 617 L136 617 Z" /><glyph glyph-name="notequal" unicode="&#x2260;" d="M644 555 L542 423 L726 423 L726 375 L510 375 L403 237 L726 237 L726 188 L372 188 L245 26 L208 56 L311 188 L127 188 L127 237 L341 237 L449 375 L127 375 L127 423 L481 423 L607 585 L644 555 Z" /><glyph glyph-name="AE" unicode="æ" d="M664 71 L664 0 L332 0 L332 229 L134 229 L51 0 L-24 0 L253 743 L664 743 L664 671 L406 671 L406 420 L645 420 L645 351 L406 351 L406 71 L664 71 ZM159 298 L332 298 L332 671 L295 671 L159 298 Z" /><glyph glyph-name="Oslash" unicode="ø" d="M423 580 L161 91 Q177 75 199.5 68 Q222 61 256 61 L301 61 Q374 61 400.5 97 Q427 133 427 241 L427 501 Q427 521 426 540.5 Q425 560 423 580 ZM135 161 L396 649 Q386 665 361.5 673 Q337 681 301 681 L256 681 Q184 681 157 645 Q130 609 130 501 L130 241 Q130 224 131.5 204.5 Q133 185 135 161 ZM311 752 Q345 752 376.5 743 Q408 734 432 718 L477 800 L528 778 L470 670 Q488 645 495.5 606.5 Q503 568 503 500 L503 242 Q503 108 457.5 49.5 Q412 -9 311 -9 L247 -9 Q209 -9 178.5 -0.5 Q148 8 126 25 L78 -67 L28 -42 L85 69 Q69 103 62 140.5 Q55 178 55 242 L55 500 Q55 634 100 693 Q145 752 247 752 L311 752 Z" /><glyph glyph-name="infinity" unicode="&#x221e;" d="M449 280 Q475 230 510 205 Q545 180 589 180 Q642 180 676 217.5 Q710 255 710 314 Q710 370 678.5 407.5 Q647 445 600 445 Q557 445 522.5 408 Q488 371 449 280 ZM406 334 Q380 384 345 408 Q310 432 265 432 Q212 432 178.5 395 Q145 358 145 300 Q145 244 176.5 206.5 Q208 169 254 169 Q298 169 332.5 206.5 Q367 244 406 334 ZM419 361 Q455 433 493.5 464 Q532 495 585 495 Q647 495 692.5 441 Q738 387 738 308 Q738 224 697 171.5 Q656 119 591 119 Q544 119 507.5 149.5 Q471 180 434 251 Q399 182 360.5 150.5 Q322 119 274 119 Q208 119 162.5 172.5 Q117 226 117 306 Q117 391 157.5 443 Q198 495 263 495 Q312 495 349 463 Q386 431 419 361 Z" /><glyph glyph-name="plusminus" unicode="±" d="M726 75 L726 26 L127 26 L127 75 L726 75 ZM452 585 L452 411 L726 411 L726 362 L452 362 L452 188 L403 188 L403 362 L127 362 L127 411 L403 411 L403 585 L452 585 Z" /><glyph glyph-name="lessequal" unicode="&#x2264;" d="M721 70 L721 21 L132 21 L132 70 L721 70 ZM721 538 L216 369 L721 201 L721 148 L132 348 L132 390 L721 591 L721 538 Z" /><glyph glyph-name="greaterequal" unicode="&#x2265;" d="M721 70 L721 21 L132 21 L132 70 L721 70 ZM721 390 L721 348 L132 148 L132 201 L637 369 L132 538 L132 591 L721 390 Z" /><glyph glyph-name="yen" unicode="¥" d="M223 0 L223 279 L17 279 L17 322 L218 322 L163 446 L17 446 L17 489 L144 489 L29 743 L110 743 L260 384 L409 743 L484 743 L373 489 L496 489 L496 446 L356 446 L301 322 L496 322 L496 279 L296 279 L296 0 L223 0 Z" /><glyph glyph-name="mu" unicode="µ" d="M172 533 L110 237 Q106 217 104 200 Q102 183 102 167 Q102 109 131 77 Q160 45 214 45 Q277 45 322 99 Q367 153 388 254 L449 533 L518 533 L436 148 Q430 120 427.5 105 Q425 90 425 81 Q425 65 433.5 56.5 Q442 48 459 48 Q463 48 467.5 48.5 Q472 49 477 49 L467 -6 Q458 -8 447 -9.5 Q436 -11 424 -11 Q389 -11 372.5 7 Q356 25 356 62 L356 69 Q335 30 296 9 Q257 -12 206 -12 Q160 -12 125.5 8 Q91 28 72 66 L15 -213 L-55 -213 L103 533 L172 533 Z" /><glyph glyph-name="partialdiff" unicode="&#x2202;" d="M376 296 Q382 338 385 376.5 Q388 415 388 451 Q388 530 368 572 Q348 614 311 614 Q286 614 257 579.5 Q228 545 205 545 Q190 545 179 555 Q168 565 168 579 Q168 610 200 632.5 Q232 655 278 655 Q360 655 409.5 579.5 Q459 504 459 376 Q459 209 391 98 Q323 -13 225 -13 Q153 -13 108 40.5 Q63 94 63 179 Q63 269 117.5 331.5 Q172 394 248 394 Q297 394 328.5 370 Q360 346 376 296 ZM356 232 Q356 296 333.5 328.5 Q311 361 266 361 Q210 361 173 298.5 Q136 236 136 137 Q136 74 158.5 43 Q181 12 226 12 Q282 12 319 74.5 Q356 137 356 232 Z" /><glyph glyph-name="summation" unicode="&#x2211;" d="M25 737 L636 737 L636 665 L129 665 L482 282 L112 -125 L640 -125 L640 -196 L7 -196 L7 -130 L379 281 L25 667 L25 737 Z" /><glyph glyph-name="product" unicode="&#x220f;" d="M80 737 L674 737 L674 -196 L590 -196 L590 663 L164 663 L164 -196 L80 -196 L80 737 Z" /><glyph glyph-name="pi" unicode="&#x3c0;" d="M560 472 L469 472 L412 202 Q404 167 400.5 143 Q397 119 397 108 Q397 79 409.5 67 Q422 55 452 55 Q466 55 477 56 Q488 57 498 59 L485 0 Q471 -4 458 -6 Q445 -8 434 -8 Q384 -8 356 18.5 Q328 45 328 93 Q328 116 333.5 152 Q339 188 356 269 L399 472 L216 472 L117 0 L47 0 L147 472 L127 472 Q100 472 84.5 456.5 Q69 441 64 407 L-2 407 Q11 478 42.5 505.5 Q74 533 150 533 L574 533 L560 472 Z" /><glyph glyph-name="integral" unicode="&#x222b;" d="M147 -136 Q199 -136 205 221 Q206 284 207 319 Q213 562 256.5 668 Q300 774 390 774 Q425 774 447 755.5 Q469 737 469 708 Q469 684 455 670 Q441 656 416 656 Q377 656 364.5 690.5 Q352 725 347 725 Q295 725 289 414 Q287 321 286 269 Q278 21 235 -82 Q192 -185 102 -185 Q67 -185 45 -167 Q23 -149 23 -122 Q23 -96 38.5 -81 Q54 -66 79 -66 Q97 -66 110 -74.5 Q123 -83 130 -100 Q132 -105 134 -117 Q136 -136 147 -136 Z" /><glyph glyph-name="ordfeminine" unicode="ª" d="M150 415 Q192 415 209.5 432.5 Q227 450 227 493 Q227 534 212 548 Q197 562 156 562 Q115 562 100.5 546.5 Q86 531 86 485 Q86 447 101 431 Q116 415 150 415 ZM225 379 L225 412 Q211 391 189.5 381.5 Q168 372 131 372 Q82 372 58 394.5 Q34 417 34 464 L34 513 Q34 559 60.5 582.5 Q87 606 137 606 Q169 606 190 598.5 Q211 591 225 575 L225 631 Q225 678 211.5 692.5 Q198 707 158 707 Q125 707 111.5 696.5 Q98 686 98 661 L98 643 L45 643 L45 660 Q45 707 72.5 729 Q100 751 160 751 Q224 751 249 728 Q274 705 274 643 L274 379 L225 379 Z" /><glyph glyph-name="ordmasculine" unicode="º" d="M89 604 L89 517 Q89 455 104.5 437 Q120 419 165 419 Q209 419 224.5 437.5 Q240 456 240 517 L240 604 Q240 666 224.5 684.5 Q209 703 165 703 Q120 703 104.5 684.5 Q89 666 89 604 ZM293 518 Q293 437 264.5 405 Q236 373 165 373 Q94 373 65 405.5 Q36 438 36 518 L36 604 Q36 685 64.5 717 Q93 749 165 749 Q236 749 264.5 717 Q293 685 293 604 L293 518 Z" /><glyph glyph-name="Omega" unicode="&#x3a9;" d="M731 70 L731 0 L441 0 L441 64 Q544 126 597 210.5 Q650 295 650 398 Q650 528 579.5 608 Q509 688 396 688 Q282 688 211 608 Q140 528 140 399 Q140 295 193 210 Q246 125 349 64 L349 0 L59 0 L59 70 L231 70 Q144 136 102.5 215.5 Q61 295 61 392 Q61 552 155 654.5 Q249 757 396 757 Q541 757 635.5 655 Q730 553 730 393 Q730 295 688.5 216 Q647 137 559 70 L731 70 Z" /><glyph glyph-name="ae" unicode="æ" d="M338 479 Q354 505 385.5 518 Q417 531 463 531 Q554 531 590.5 485 Q627 439 627 322 L627 247 L366 247 L366 198 Q366 108 385.5 83 Q405 58 462 58 Q522 58 544.5 77 Q567 96 567 145 L567 161 L626 161 L626 144 Q626 62 587.5 26 Q549 -10 462 -10 Q403 -10 368.5 8 Q334 26 318 65 Q295 24 263.5 7 Q232 -10 174 -10 Q109 -10 77.5 22 Q46 54 46 122 L46 192 Q46 257 80.5 291 Q115 325 181 325 Q223 325 250.5 314 Q278 303 296 280 L296 361 Q296 427 279 447 Q262 467 209 467 Q166 467 147.5 452 Q129 437 129 403 L129 378 L61 378 L61 402 Q61 468 97 499.5 Q133 531 210 531 Q264 531 293 519 Q322 507 338 479 ZM199 51 Q254 51 276 75.5 Q298 100 298 162 Q298 221 279.5 241.5 Q261 262 207 262 Q152 262 133.5 240 Q115 218 115 151 Q115 97 134.5 74 Q154 51 199 51 ZM366 312 L562 312 L562 344 Q562 416 541 441.5 Q520 467 464 467 Q408 467 387 441.5 Q366 416 366 344 L366 312 Z" /><glyph glyph-name="oslash" unicode="ø" d="M321 384 L136 83 Q147 69 167 62.5 Q187 56 219 56 Q280 56 301.5 82.5 Q323 109 323 198 L323 322 Q323 338 322.5 353 Q322 368 321 384 ZM116 140 L299 441 Q288 453 269.5 458.5 Q251 464 217 464 Q158 464 137 436.5 Q116 409 116 322 L116 140 ZM15 -34 L71 61 Q60 80 54 116.5 Q48 153 48 199 L48 322 Q48 437 86 483 Q124 529 220 529 Q258 529 285.5 522 Q313 515 335 501 L374 564 L412 542 L366 463 Q378 442 384 406 Q390 370 390 322 L390 199 Q390 83 352.5 37 Q315 -9 219 -9 Q177 -9 147.5 -1 Q118 7 100 23 L52 -57 L15 -34 Z" /><glyph glyph-name="questiondown" unicode="¿" d="M313 557 L313 495 Q313 468 308.5 451.5 Q304 435 295 422 Q278 398 220 371 Q200 361 189 356 Q144 332 130.5 311 Q117 290 117 230 L117 170 Q117 110 138 90 Q159 70 219 70 L271 70 Q320 70 342.5 92.5 Q365 115 365 166 L365 238 L431 238 L431 175 Q431 84 395 42 Q359 0 281 0 L202 0 Q120 0 83 38.5 Q46 77 46 165 L46 238 Q46 301 61.5 339.5 Q77 378 110 398 Q130 410 159.5 423 Q189 436 195 439 Q225 453 233 466 Q241 479 241 503 L241 557 L313 557 ZM312 752 L312 659 L242 659 L242 752 L312 752 Z" /><glyph glyph-name="exclamdown" unicode="¡" d="M163 743 L163 649 L93 649 L93 743 L163 743 ZM163 547 L163 0 L93 0 L93 547 L163 547 Z" /><glyph glyph-name="logicalnot" unicode="¬" d="M726 429 L726 178 L678 178 L678 379 L127 379 L127 429 L726 429 Z" /><glyph glyph-name="radical" unicode="&#x221a;" d="M638 818 L638 783 L576 783 L279 -20 L258 -20 L94 429 L37 410 L28 439 L151 482 L287 109 L549 818 L638 818 Z" /><glyph glyph-name="florin" unicode="&#x192;" d="M220 417 L135 417 L135 479 L229 479 L247 574 Q265 666 305.5 709.5 Q346 753 415 753 Q426 753 440 751.5 Q454 750 470 747 L470 674 Q453 680 439.5 682.5 Q426 685 415 685 Q366 685 341 642.5 Q316 600 299 479 L405 479 L405 417 L290 417 L239 52 Q221 -79 186 -134 Q151 -189 88 -189 Q68 -189 49 -183.5 Q30 -178 12 -167 L12 -95 Q32 -108 49 -114.5 Q66 -121 80 -121 Q115 -121 135.5 -81.5 Q156 -42 169 55 L220 417 Z" /><glyph glyph-name="approxequal" unicode="&#x2248;" d="M765 235 Q712 198 664.5 180 Q617 162 572 162 Q521 162 426 197 Q331 232 283 232 Q242 232 197.5 213.5 Q153 195 89 152 L89 207 Q143 244 190.5 262 Q238 280 283 280 Q337 280 432 245.5 Q527 211 572 211 Q615 211 659.5 229 Q704 247 765 290 L765 235 ZM765 404 Q713 367 665.5 349 Q618 331 572 331 Q520 331 425.5 366 Q331 401 283 401 Q242 401 197.5 382.5 Q153 364 89 321 L89 377 Q142 414 190 432 Q238 450 283 450 Q337 450 432 415 Q527 380 572 380 Q614 380 657.5 397.5 Q701 415 765 459 L765 404 Z" /><glyph glyph-name="Delta" unicode="&#x2206;" d="M570 70 L336 663 L104 70 L570 70 ZM383 737 L678 0 L-5 0 L290 737 L383 737 Z" /><glyph glyph-name="guillemotleft" unicode="«" d="M287 99 L197 259 L287 421 L359 421 L270 259 L359 99 L287 99 ZM137 99 L48 259 L137 421 L209 421 L121 259 L209 99 L137 99 Z" /><glyph glyph-name="guillemotright" unicode="»" d="M256 421 L346 259 L256 99 L185 99 L274 259 L185 421 L256 421 ZM108 421 L197 259 L108 99 L35 99 L124 259 L35 421 L108 421 Z" /><glyph glyph-name="OE" unicode="&#x152;" d="M274 678 L237 678 Q178 678 155.5 643 Q133 608 133 500 L133 242 Q133 134 155.5 99 Q178 64 237 64 L274 64 Q333 64 355 99 Q377 134 377 242 L377 500 Q377 607 355 642.5 Q333 678 274 678 ZM687 71 L687 0 L393 0 L393 53 Q374 23 342.5 7 Q311 -9 272 -9 L220 -9 Q133 -9 94 50 Q55 109 55 242 L55 500 Q55 633 94 692.5 Q133 752 220 752 L272 752 Q311 752 342.5 735.5 Q374 719 393 687 L393 743 L687 743 L687 671 L458 671 L458 420 L668 420 L668 351 L458 351 L458 71 L687 71 Z" /><glyph glyph-name="oe" unicode="&#x153;" d="M116 322 L116 198 Q116 109 136 83 Q156 57 212 57 Q269 57 288.5 83.5 Q308 110 308 198 L308 322 Q308 410 288.5 436 Q269 462 212 462 Q156 462 136 435.5 Q116 409 116 322 ZM377 312 L575 312 L575 344 Q575 417 554 442 Q533 467 476 467 Q420 467 398.5 441 Q377 415 377 344 L377 312 ZM378 247 L378 198 Q378 108 397.5 83 Q417 58 474 58 Q534 58 556.5 77 Q579 96 579 145 L579 161 L638 161 L638 144 Q638 63 599.5 27 Q561 -9 473 -9 Q424 -9 392.5 2.5 Q361 14 342 40 Q325 15 294 3 Q263 -9 212 -9 Q121 -9 84.5 37 Q48 83 48 199 L48 322 Q48 437 85 483 Q122 529 213 529 Q262 529 294 517 Q326 505 344 479 Q362 505 393 517 Q424 529 474 529 Q566 529 602.5 483 Q639 437 639 322 L639 247 L378 247 Z" /><glyph glyph-name="endash" unicode="&#x2013;" d="M0 241 L0 291 L512 291 L512 241 L0 241 Z" /><glyph glyph-name="emdash" unicode="&#x2014;" d="M0 291 L1024 291 L1024 241 L0 241 L0 291 Z" /><glyph glyph-name="quotedblleft" unicode="&#x201c;" d="M231 659 Q231 709 245.5 730.5 Q260 752 294 752 Q299 752 303 751.5 Q307 751 310 751 L310 711 Q291 710 284 702.5 Q277 695 277 676 L277 630 L305 630 L305 531 L231 531 L231 659 ZM88 659 Q88 709 103 730.5 Q118 752 153 752 Q157 752 161 751.5 Q165 751 168 751 L168 711 Q150 710 142 702.5 Q134 695 134 676 L134 630 L163 630 L163 531 L88 531 L88 659 Z" /><glyph glyph-name="quotedblright" unicode="&#x201d;" d="M311 615 Q311 565 295.5 543 Q280 521 246 521 Q241 521 238 521.5 Q235 522 231 523 L231 562 Q249 563 256 570.5 Q263 578 263 597 L263 642 L235 642 L235 743 L311 743 L311 615 ZM168 615 Q168 565 153 543 Q138 521 104 521 Q99 521 95.5 521.5 Q92 522 88 523 L88 562 Q107 563 114 570.5 Q121 578 121 597 L121 642 L93 642 L93 743 L168 743 L168 615 Z" /><glyph glyph-name="quoteleft" unicode="&#x2018;" d="M88 659 Q88 709 103 730.5 Q118 752 153 752 Q157 752 161 751.5 Q165 751 168 751 L168 711 Q150 710 142 702.5 Q134 695 134 676 L134 630 L163 630 L163 531 L88 531 L88 659 Z" /><glyph glyph-name="quoteright" unicode="&#x2019;" d="M168 615 Q168 565 153 543 Q138 521 104 521 Q99 521 95.5 521.5 Q92 522 88 523 L88 562 Q107 563 114 570.5 Q121 578 121 597 L121 642 L93 642 L93 743 L168 743 L168 615 Z" /><glyph glyph-name="divide" unicode="÷" d="M427 183 Q450 183 465.5 167.5 Q481 152 481 129 Q481 107 465.5 91.5 Q450 76 427 76 Q405 76 389.5 91.5 Q374 107 374 129 Q374 151 389.5 167 Q405 183 427 183 ZM726 330 L726 281 L127 281 L127 330 L726 330 ZM427 536 Q449 536 465 520 Q481 504 481 482 Q481 459 465.5 443.5 Q450 428 427 428 Q405 428 389.5 443.5 Q374 459 374 482 Q374 504 390 520 Q406 536 427 536 Z" /><glyph glyph-name="lozenge" unicode="&#x25ca;" d="M253 705 L61 296 L253 -116 L446 296 L253 705 ZM253 827 L503 296 L253 -238 L3 296 L253 827 Z" /><glyph glyph-name="fraction" unicode="&#x2215;" d="M-171 -9 L278 752 L341 752 L-106 -9 L-171 -9 Z" /><glyph glyph-name="currency" unicode="¤" d="M459 205 Q456 87 418.5 39 Q381 -9 296 -9 L254 -9 Q164 -9 127 46 Q90 101 90 242 L90 277 L13 277 L27 320 L90 320 L90 423 L13 423 L26 466 L90 466 L90 500 Q90 641 127.5 696.5 Q165 752 254 752 L296 752 Q380 752 417.5 704.5 Q455 657 459 540 L384 540 Q382 627 359 655 Q336 683 278 683 L273 683 Q211 683 188.5 651 Q166 619 166 502 L166 466 L371 466 L358 423 L166 423 L166 320 L324 320 L309 277 L166 277 L166 240 Q166 123 188.5 91.5 Q211 60 273 60 L278 60 Q337 60 359.5 88 Q382 116 385 205 L459 205 Z" /><glyph glyph-name="guilsinglleft" unicode="&#x2039;" d="M137 99 L48 259 L137 421 L209 421 L121 259 L209 99 L137 99 Z" /><glyph glyph-name="guilsinglright" unicode="&#x203a;" d="M108 421 L197 259 L108 99 L35 99 L124 259 L35 421 L108 421 Z" /><glyph glyph-name="fi" unicode="&#xf001;&#xfb01;" d="M301 656 L301 743 L368 743 L368 656 L301 656 ZM301 0 L301 519 L368 519 L368 0 L301 0 ZM78 0 L78 458 L15 458 L15 519 L78 519 L78 612 Q78 687 111.5 721.5 Q145 756 218 756 Q230 756 255 754 Q257 754 258 754 L258 695 Q251 696 243.5 696.5 Q236 697 221 697 Q179 697 162 677.5 Q145 658 145 606 L145 519 L258 519 L258 458 L145 458 L145 0 L78 0 Z" /><glyph glyph-name="fl" unicode="&#xf002;&#xfb02;" d="M301 0 L301 756 L368 756 L368 0 L301 0 ZM78 0 L78 458 L15 458 L15 519 L78 519 L78 612 Q78 687 111.5 721.5 Q145 756 218 756 Q230 756 255 754 Q257 754 258 754 L258 695 Q251 696 243.5 696.5 Q236 697 221 697 Q179 697 162 677.5 Q145 658 145 606 L145 519 L258 519 L258 458 L145 458 L145 0 L78 0 Z" /><glyph glyph-name="daggerdbl" unicode="&#x2021;" d="M165 -9 L165 190 L66 190 L66 251 L165 251 L165 499 L66 499 L66 560 L165 560 L165 743 L234 743 L234 560 L333 560 L333 499 L234 499 L234 251 L333 251 L333 190 L234 190 L234 -9 L165 -9 Z" /><glyph glyph-name="periodcentered" unicode="·" d="M73 371 Q73 393 89.5 409.5 Q106 426 128 426 Q151 426 167 410 Q183 394 183 371 Q183 348 167 332.5 Q151 317 128 317 Q106 317 89.5 332.5 Q73 348 73 371 Z" /><glyph glyph-name="quotesinglbase" unicode="&#x201a;" d="M165 -28 Q165 -79 150 -100.5 Q135 -122 101 -122 Q96 -122 92.5 -121.5 Q89 -121 85 -120 L85 -80 Q104 -79 111.5 -71.5 Q119 -64 119 -46 L119 0 L90 0 L90 100 L165 100 L165 -28 Z" /><glyph glyph-name="quotedblbase" unicode="&#x201e;" d="M307 -28 Q307 -79 292 -100.5 Q277 -122 243 -122 Q238 -122 234.5 -121.5 Q231 -121 228 -121 L228 -80 Q246 -79 253 -72 Q260 -65 260 -46 L260 0 L233 0 L233 100 L307 100 L307 -28 ZM165 -28 Q165 -79 150 -100.5 Q135 -122 101 -122 Q96 -122 92.5 -121.5 Q89 -121 85 -120 L85 -80 Q104 -79 111.5 -71.5 Q119 -64 119 -46 L119 0 L90 0 L90 100 L165 100 L165 -28 Z" /><glyph glyph-name="perthousand" unicode="&#x2030;" d="M1140 171 Q1140 73 1114.5 35.5 Q1089 -2 1027 -2 L972 -2 Q910 -2 884.5 35.5 Q859 73 859 171 L859 285 Q859 383 884.5 421 Q910 459 972 459 L1027 459 Q1089 459 1114.5 421 Q1140 383 1140 285 L1140 171 ZM1075 177 L1075 280 Q1075 360 1060 380 Q1045 400 1000 400 Q954 400 939 380 Q924 360 924 280 L924 177 Q924 97 939 77.5 Q954 58 1000 58 Q1045 58 1060 77.5 Q1075 97 1075 177 ZM789 171 Q789 73 763.5 35.5 Q738 -2 676 -2 L621 -2 Q559 -2 533.5 35.5 Q508 73 508 171 L508 285 Q508 383 533.5 421 Q559 459 621 459 L676 459 Q738 459 763.5 421 Q789 383 789 285 L789 171 ZM724 177 L724 280 Q724 360 709 380 Q694 400 648 400 Q603 400 588 380 Q573 360 573 280 L573 177 Q573 97 588 77.5 Q603 58 648 58 Q694 58 709 77.5 Q724 97 724 177 ZM326 457 Q326 359 300.5 321.5 Q275 284 213 284 L158 284 Q96 284 70.5 321.5 Q45 359 45 457 L45 571 Q45 669 70.5 707 Q96 745 158 745 L213 745 Q275 745 300.5 707 Q326 669 326 571 L326 457 ZM261 463 L261 564 Q261 646 246 665.5 Q231 685 186 685 Q140 685 125 665.5 Q110 646 110 564 L110 463 Q110 382 125 362 Q140 342 186 342 Q231 342 246 362 Q261 382 261 463 ZM217 -9 L556 752 L617 752 L278 -9 L217 -9 Z" /><glyph glyph-name="apple" unicode="&#xf000;" d="M418 608 Q418 611 417.5 615 Q417 619 417 627 Q417 689 464.5 741.5 Q512 794 583 807 Q583 802 583.5 795.5 Q584 789 584 776 Q584 711 532 659 Q480 607 430 607 L426 607 Q425 607 422.5 607.5 Q420 608 418 608 ZM753 202 Q696 78 650.5 30.5 Q605 -17 548 -17 Q523 -17 482.5 -0.5 Q442 16 421 16 Q399 16 356 -0.5 Q313 -17 292 -17 Q260 -17 228 5 Q196 27 163 71 Q112 141 84.5 218.5 Q57 296 57 369 Q57 478 119.5 547 Q182 616 281 616 Q315 616 358.5 599 Q402 582 420 582 Q437 582 481 599 Q525 616 557 616 Q613 616 657 596 Q701 576 737 535 Q686 502 661 462 Q636 422 636 371 Q636 314 666 270.5 Q696 227 753 202 Z" /><glyph glyph-name="dotlessi" unicode="&#x131;" d="M57 0 L57 519 L123 519 L123 0 L57 0 Z" /><glyph glyph-name="circumflex" unicode="&#x2c6;" d="M113 584 L211 759 L300 759 L399 584 L345 584 L256 706 L166 584 L113 584 Z" /><glyph glyph-name="tilde" unicode="&#x2dc;" d="M402 718 Q390 671 364 646.5 Q338 622 302 622 Q294 622 286.5 623 Q279 624 270 627 L230 640 Q222 643 215.5 644 Q209 645 203 645 Q186 645 174 637.5 Q162 630 155 614 L111 614 Q122 659 147 683 Q172 707 210 707 Q217 707 224.5 705.5 Q232 704 240 702 L279 688 Q287 686 295 684.5 Q303 683 309 683 Q327 683 339.5 692 Q352 701 358 718 L402 718 Z" /><glyph glyph-name="macron" unicode="¯" d="M127 632 L127 695 L385 695 L385 632 L127 632 Z" /><glyph glyph-name="breve" unicode="&#x2d8;" d="M115 740 L160 740 Q163 701 186 683.5 Q209 666 256 666 Q303 666 326 683.5 Q349 701 353 740 L398 740 Q392 669 358 636 Q324 603 256 603 Q188 603 154 636.5 Q120 670 115 740 Z" /><glyph glyph-name="dotaccent" unicode="&#x2d9;" d="M214 614 L214 713 L298 713 L298 614 L214 614 Z" /><glyph glyph-name="ring" unicode="&#x2da;" d="M186 699 Q186 669 206 648 Q226 627 256 627 Q286 627 307 648 Q328 669 328 699 Q328 729 307 749.5 Q286 770 256 770 Q226 770 206 749.5 Q186 729 186 699 ZM132 699 Q132 751 168 787 Q204 823 256 823 Q308 823 344 787 Q380 751 380 699 Q380 646 344 610.5 Q308 575 256 575 Q204 575 168 610.5 Q132 646 132 699 Z" /><glyph glyph-name="cedilla" unicode="¸" d="M150 -211 L150 -168 Q187 -176 218 -180.5 Q249 -185 273 -185 Q303 -185 318 -175 Q333 -165 333 -144 Q333 -118 316.5 -106.5 Q300 -95 263 -95 Q253 -95 248 -95 Q243 -95 238 -96 L238 0 L275 0 L275 -53 L286 -53 Q342 -53 370.5 -75.5 Q399 -98 399 -141 Q399 -186 367.5 -209 Q336 -232 276 -232 Q253 -232 223.5 -227 Q194 -222 150 -211 Z" /><glyph glyph-name="hungarumlaut" unicode="&#x2dd;" d="M290 584 L374 759 L452 759 L332 584 L290 584 ZM161 584 L235 759 L314 759 L203 584 L161 584 Z" /><glyph glyph-name="ogonek" unicode="&#x2db;" d="M307 0 Q273 -31 256.5 -58.5 Q240 -86 240 -111 Q240 -134 251 -143 Q262 -152 288 -152 L328 -152 L328 -217 L289 -217 Q232 -217 204.5 -197 Q177 -177 177 -135 Q177 -102 197.5 -72 Q218 -42 272 0 L307 0 Z" /><glyph glyph-name="caron" unicode="&#x2c7;" d="M113 759 L166 759 L256 637 L345 759 L399 759 L300 584 L211 584 L113 759 Z" /><glyph glyph-name="Lslash" unicode="&#x141;" d="M64 0 L64 319 L0 276 L0 332 L64 377 L64 743 L137 743 L137 415 L249 490 L249 432 L137 356 L137 71 L359 71 L359 0 L64 0 Z" /><glyph glyph-name="lslash" unicode="&#x142;" d="M60 0 L60 337 L0 298 L0 349 L60 390 L60 756 L126 756 L126 424 L186 464 L186 413 L126 371 L126 0 L60 0 Z" /><glyph glyph-name="brokenbar" unicode="¦" d="M284 204 L284 -175 L230 -175 L230 204 L284 204 ZM284 716 L284 337 L230 337 L230 716 L284 716 Z" /><glyph glyph-name="Eth" unicode="ð" d="M137 69 L236 69 Q301 69 338.5 79 Q376 89 396 112 Q414 134 421.5 166 Q429 198 429 272 L429 471 Q429 545 421.5 577 Q414 609 396 631 Q376 654 338.5 664 Q301 674 236 674 L137 674 L137 408 L291 408 L291 358 L137 358 L137 69 ZM64 0 L64 358 L0 358 L0 408 L64 408 L64 743 L250 743 Q394 743 450.5 684 Q507 625 507 473 L507 269 Q507 117 450.5 58.5 Q394 0 250 0 L64 0 Z" /><glyph glyph-name="eth" unicode="ð" d="M119 322 L119 198 Q119 109 139.5 83 Q160 57 219 57 Q278 57 299 83.5 Q320 110 320 198 L320 322 Q320 410 299.5 436 Q279 462 219 462 Q160 462 139.5 435.5 Q119 409 119 322 ZM48 199 L48 322 Q48 432 84 480.5 Q120 529 201 529 Q238 529 261.5 515 Q285 501 311 465 Q299 509 279.5 553.5 Q260 598 233 640 L84 587 L63 639 L198 688 L160 745 L235 745 L257 712 L349 746 L372 692 L295 664 Q344 585 367 502 Q390 419 390 326 L390 199 Q390 83 352.5 37 Q315 -9 219 -9 Q125 -9 86.5 37 Q48 83 48 199 Z" /><glyph glyph-name="Thorn" unicode="þ" d="M135 529 L135 213 L250 213 Q341 213 366.5 233 Q392 253 392 308 L392 435 Q392 490 367.5 509.5 Q343 529 250 529 L135 529 ZM135 743 L135 598 L261 598 Q389 598 430.5 559.5 Q472 521 472 414 L472 329 Q472 222 430.5 183.5 Q389 145 261 145 L135 145 L135 0 L62 0 L62 743 L135 743 Z" /><glyph glyph-name="thorn" unicode="þ" d="M127 756 L127 463 Q148 495 180 512 Q212 529 253 529 Q328 529 360 475.5 Q392 422 392 292 L392 212 Q392 93 359 42 Q326 -9 251 -9 Q211 -9 179.5 7.5 Q148 24 127 57 L127 -192 L61 -192 L61 756 L127 756 ZM127 301 L127 218 Q127 124 150.5 89.5 Q174 55 233 55 Q282 55 302 90 Q322 125 322 215 L322 304 Q322 395 302 430 Q282 465 233 465 Q174 465 150.5 430.5 Q127 396 127 301 Z" /><glyph glyph-name="minus" unicode="&#x2212;" d="M726 330 L726 281 L127 281 L127 330 L726 330 Z" /><glyph glyph-name="multiply" unicode="×" d="M428 340 L669 581 L704 546 L463 305 L704 65 L669 30 L428 271 L188 30 L153 65 L393 305 L153 546 L188 581 L428 340 Z" /><glyph glyph-name="onesuperior" unicode="¹" d="M178 297 L178 695 L77 581 L47 607 L169 743 L226 743 L226 297 L178 297 Z" /><glyph glyph-name="twosuperior" unicode="²" d="M247 598 L247 633 Q247 673 232 690 Q217 707 183 707 L156 707 Q118 707 104 690.5 Q90 674 90 617 L90 601 L42 601 L42 615 Q42 690 66.5 719 Q91 748 151 748 L190 748 Q249 748 273 721.5 Q297 695 297 624 L297 579 Q297 556 293.5 541.5 Q290 527 282 516 Q262 491 189 468 Q164 460 151 456 Q112 443 97.5 423 Q83 403 83 356 L83 339 L294 339 L294 297 L36 297 L36 356 Q36 391 40.5 413 Q45 435 55 448 Q64 461 82.5 471.5 Q101 482 150 499 Q158 502 172 507 Q226 525 236 538 Q241 545 244 560 Q247 575 247 598 Z" /><glyph glyph-name="threesuperior" unicode="³" d="M242 633 Q242 673 228 690 Q214 707 180 707 L154 707 Q118 707 105 690.5 Q92 674 92 617 L92 609 L45 609 L45 615 Q45 690 68.5 719 Q92 748 150 748 L188 748 Q244 748 267.5 721 Q291 694 291 626 Q291 576 277.5 555.5 Q264 535 230 529 Q266 516 281 493.5 Q296 471 296 428 Q296 349 272 320.5 Q248 292 187 292 L147 292 Q86 292 61.5 321 Q37 350 37 425 L37 444 L85 444 L85 422 Q85 366 99 349.5 Q113 333 152 333 L178 333 Q214 333 229 350 Q244 367 244 407 L244 441 Q244 478 229 491.5 Q214 505 172 505 L140 505 L140 545 L175 545 Q211 545 226.5 559 Q242 573 242 604 L242 633 Z" /><glyph glyph-name="onequarter" unicode="¼" d="M707 134 L707 371 L554 134 L707 134 ZM707 0 L707 95 L519 95 L519 154 L687 416 L749 416 L749 134 L793 134 L793 95 L749 95 L749 0 L707 0 ZM152 -9 L600 752 L664 752 L216 -9 L152 -9 ZM170 327 L170 698 L73 592 L44 617 L160 743 L214 743 L214 327 L170 327 Z" /><glyph glyph-name="onehalf" unicode="½" d="M729 281 L729 314 Q729 351 714.5 367 Q700 383 667 383 L642 383 Q606 383 593 367.5 Q580 352 580 298 L580 284 L534 284 L534 296 Q534 367 557 394 Q580 421 637 421 L675 421 Q732 421 754.5 396 Q777 371 777 304 L777 262 Q777 242 773.5 228.5 Q770 215 762 204 Q744 182 677 161 Q651 154 637 149 Q600 136 586.5 117.5 Q573 99 573 55 L573 40 L774 40 L774 0 L528 0 L528 55 Q528 87 532 108 Q536 129 545 141 Q554 153 572 163 Q590 173 636 189 Q641 190 651 194 Q708 213 718 226 Q724 232 726.5 245.5 Q729 259 729 281 ZM152 -9 L600 752 L664 752 L216 -9 L152 -9 ZM170 327 L170 698 L73 592 L44 617 L160 743 L214 743 L214 327 L170 327 Z" /><glyph glyph-name="threequarters" unicode="¾" d="M707 134 L707 371 L554 134 L707 134 ZM707 0 L707 95 L519 95 L519 154 L687 416 L749 416 L749 134 L793 134 L793 95 L749 95 L749 0 L707 0 ZM152 -9 L600 752 L664 752 L216 -9 L152 -9 ZM232 640 Q232 677 218 693.5 Q204 710 172 710 L148 710 Q113 710 100.5 695 Q88 680 88 625 L88 618 L43 618 L43 623 Q43 693 65.5 720.5 Q88 748 143 748 L179 748 Q233 748 256 722.5 Q279 697 279 634 Q279 588 265.5 569 Q252 550 219 543 Q254 531 268.5 510 Q283 489 283 450 Q283 376 260 349 Q237 322 177 322 L140 322 Q82 322 58.5 349 Q35 376 35 447 L35 463 L81 463 L81 444 Q81 391 94.5 375.5 Q108 360 145 360 L170 360 Q204 360 218.5 376 Q233 392 233 429 L233 461 Q233 496 218.5 508 Q204 520 165 520 L133 520 L133 558 L167 558 Q202 558 217 571 Q232 584 232 614 L232 640 Z" /><glyph glyph-name="dcroat" unicode="&#x111;" d="M317 61 Q291 24 259.5 7.5 Q228 -9 186 -9 Q110 -9 78 44.5 Q46 98 46 228 L46 307 Q46 427 79.5 478 Q113 529 189 529 Q228 529 259 512.5 Q290 496 312 463 L312 603 L162 603 L162 646 L312 646 L312 756 L378 756 L378 646 L442 646 L442 603 L378 603 L378 0 L317 0 L317 61 ZM312 218 L312 301 Q312 397 288 431 Q264 465 206 465 Q157 465 137.5 430.5 Q118 396 118 304 L118 215 Q118 123 137.5 89 Q157 55 206 55 Q264 55 288 89 Q312 123 312 218 Z" /><glyph glyph-name="sfthyphen" unicode="­" d="M42 234 L42 298 L266 298 L266 234 L42 234 Z" /><glyph glyph-name="periodcentered" unicode="&#x2219;" d="M73 371 Q73 393 89.5 409.5 Q106 426 128 426 Q151 426 167 410 Q183 394 183 371 Q183 348 167 332.5 Q151 317 128 317 Q106 317 89.5 332.5 Q73 348 73 371 Z" /><glyph glyph-name="Euro" unicode="&#x20ac;" d="M459 205 Q456 87 418.5 39 Q381 -9 296 -9 L254 -9 Q164 -9 127 46 Q90 101 90 242 L90 277 L13 277 L27 320 L90 320 L90 423 L13 423 L26 466 L90 466 L90 500 Q90 641 127.5 696.5 Q165 752 254 752 L296 752 Q380 752 417.5 704.5 Q455 657 459 540 L384 540 Q382 627 359 655 Q336 683 278 683 L273 683 Q211 683 188.5 651 Q166 619 166 502 L166 466 L371 466 L358 423 L166 423 L166 320 L324 320 L309 277 L166 277 L166 240 Q166 123 188.5 91.5 Q211 60 273 60 L278 60 Q337 60 359.5 88 Q382 116 385 205 L459 205 Z" /></font>
</defs>
</svg>
